<svg xmlns="http://www.w3.org/2000/svg" viewBox="0 0 48 48">
  <path fill="#EA4335" d="M24 9.5c3.94 0 7.46 1.52 10.18 4L39 8.68C35.24 5.3 29.98 3 24 3 14.82 3 7.08 8.48 3.64 16.06l7.98 6.19C13.12 15.24 18.08 9.5 24 9.5z"></path>
  <path fill="#34A853" d="M46.15 24.5c0-1.63-.15-3.18-.42-4.68H24v9.36h12.52c-.54 2.8-2.16 5.18-4.58 6.78l7.02 5.45C43.56 37.24 46.15 31.33 46.15 24.5z"></path>
  <path fill="#4A90E2" d="M24 46c6.48 0 11.92-2.14 15.9-5.84l-7.02-5.45C30.48 36.92 27.4 38 24 38c-5.9 0-10.9-3.98-12.68-9.36l-7.98 6.19C7.08 39.52 14.82 46 24 46z"></path>
  <path fill="#FBBC05" d="M11.32 28.64A13.41 13.41 0 0 1 10.5 24c0-1.64.29-3.23.82-4.64l-7.98-6.19A22.94 22.94 0 0 0 1.85 24c0 3.66.88 7.1 2.49 10.19l7.98-6.19z"></path>
</svg>
